<svg xmlns="http://www.w3.org/2000/svg" viewBox="0 0 64 64" fill="none">
  <rect width="64" height="64" rx="16" fill="#0F766E"/>
  <path
    d="M44 20.5c0-4.6-3.9-8-9.8-8-5.2 0-9.2 2.6-10.4 6.6"
    stroke="#F8FFFE"
    stroke-width="3.2"
    stroke-linecap="round"
  />
  <path
    d="M23.8 26.2c1.4-3.2 4.8-5.2 9.4-5.2 5.6 0 8.8 2.7 8.8 6.2 0 3.3-2.2 5.1-8.2 6.7-6.4 1.7-10.2 4.4-10.2 9.4 0 5.2 4.4 8.7 11 8.7 5.4 0 9.4-2.6 10.8-6.8"
    stroke="#F8FFFE"
    stroke-width="3.2"
    stroke-linecap="round"
    stroke-linejoin="round"
  />
  <circle cx="24.2" cy="19.8" r="3.1" fill="#F8FFFE"/>
  <circle cx="40.8" cy="27.6" r="3.1" fill="#F8FFFE"/>
  <circle cx="23.6" cy="37.4" r="3.1" fill="#F8FFFE"/>
  <circle cx="41.2" cy="45.8" r="3.1" fill="#F8FFFE"/>
</svg>
